# xmcd
#
# Track frame offsets:
#	150
#	11204
#	24205
#	36377
#	48984
#	62996
#	79242
#	93834
#
# Disc length: 1421 seconds
#
# Revision: 1
# Processed by: cddbd v1.5.2PL0 Copyright (c) Steve Scherf et al.
# Submitted via: audiograbber 1.83.01
#
DISCID=5f058b08
DTITLE=Various Artist - To neo kyma 10
DYEAR=1900
DGENRE=
TTITLE0=Mavromalousa kopelia
TTITLE1=Kainourio mou feggari
TTITLE2=s anevasa psila
TTITLE3=Fwnakse me
TTITLE4=kathe marth aprili mai
TTITLE5=H mpalanta ths kaiths
TTITLE6=Kyriakh xwris agaph
TTITLE7=To tragoudi tou nerou
EXTD=
EXTT0=
EXTT1=
EXTT2=
EXTT3=
EXTT4=
EXTT5=
EXTT6=
EXTT7=
PLAYORDER=
